<svg width="37" height="43" viewBox="0 0 37 43" fill="none" xmlns="http://www.w3.org/2000/svg">
<g clip-path="url(#clip0)">
<path fill-rule="evenodd" clip-rule="evenodd" d="M18.4998 2L35.3873 11.75V31.25L18.4998 41L1.6123 31.25V11.75L18.4998 2Z" stroke="#0068AC" stroke-width="2"/>
<path d="M30.0479 27.5938L18.7896 34.0938L7.53125 27.5938" stroke="#0068AC" stroke-width="2"/>
<path fill-rule="evenodd" clip-rule="evenodd" d="M23.9975 20.2868C23.9975 22.7464 22.1831 24.2584 19.6631 24.5608V26.8187H17.6269V24.6414C15.6915 24.5809 14.1795 24.0769 12.8691 22.7464L14.6835 20.932C15.5303 21.7787 16.6794 22.1012 17.889 22.1416V18.4926L17.2439 18.412C16.0343 18.2507 15.0666 17.8072 14.4618 17.2024C13.7763 16.5169 13.4336 15.6097 13.4336 14.4001C13.4336 12.0817 15.0061 10.3681 17.6269 10.0859V8.27148H19.6631V10.0657C21.296 10.1665 22.5459 10.6705 23.6346 11.7188L21.8605 13.4728C21.1952 12.8276 20.2074 12.5656 19.3808 12.5051V16.0129L20.1469 16.1339C21.4573 16.3355 22.2839 16.6984 22.8887 17.2628C23.6547 17.9886 23.9975 19.0168 23.9975 20.2868ZM17.889 15.892V12.5252C16.7197 12.6865 16.1351 13.4123 16.1351 14.2993C16.1351 14.6622 16.256 15.0452 16.5584 15.3275C16.881 15.6299 17.3245 15.8113 17.889 15.892ZM21.2557 20.3675C21.2557 19.8635 21.1146 19.4401 20.8122 19.1579C20.409 18.7748 19.905 18.7144 19.3808 18.6337V22.1012C20.5904 21.9601 21.2557 21.3553 21.2557 20.3675Z" fill="#0068AC"/>
</g>
<defs>
<clipPath id="clip0">
<rect width="37" height="43" fill="white"/>
</clipPath>
</defs>
</svg>
