<?xml version="1.0" encoding="UTF-8"?>
<svg width="48px" height="48px" viewBox="0 0 48 48" version="1.1" xmlns="http://www.w3.org/2000/svg" xmlns:xlink="http://www.w3.org/1999/xlink">
    <!-- Generator: Sketch 51 (57462) - http://www.bohemiancoding.com/sketch -->
    <title>Icon Accounts Default</title>
    <desc>Created with Sketch.</desc>
    <defs></defs>
    <g id="Icon-Accounts-Default" stroke="none" stroke-width="1" fill="none" fill-rule="evenodd">
        <g id="Group-8-Copy" transform="translate(8.000000, 7.000000)">
            <polygon id="Polygon-Copy-8" stroke="#0069AA" stroke-width="1.6" points="16 0 31.4399958 8.75 31.4399958 26.25 16 35 0.56000423 26.25 0.56000423 8.75"></polygon>
            <polyline id="Polygon-Copy-13" stroke="#0069AA" stroke-width="1.6" points="26.5580896 22.96875 16.2647591 28.8020833 5.97142857 22.96875"></polyline>
            <path d="M20.8510583,17.4347744 C20.8510583,18.4961951 20.4885659,19.3555711 19.7635703,20.0129282 C19.0385747,20.6702853 18.0739763,21.0532354 16.8697463,21.1617897 L16.8697463,23.1700359 L15.3583223,23.1700359 L15.3583223,21.2160667 C13.6257056,21.1436971 12.2248876,20.5768104 11.1558263,19.5153897 L12.4829303,18.2308359 C13.2570782,18.9907166 14.270828,19.4008048 15.5242103,19.4611128 L15.5242103,15.4446205 L15.0449783,15.3903436 C14.0127811,15.2697276 13.1894934,14.9259772 12.5750903,14.3590821 C11.923823,13.7560021 11.5981943,12.9358257 11.5981943,11.8985282 C11.5981943,10.8612307 11.9330389,10.00487 12.6027383,9.32942051 C13.2724376,8.65397098 14.1909564,8.2619749 15.3583223,8.15342051 L15.3583223,6.52511282 L16.8697463,6.52511282 L16.8697463,8.13532821 C18.2705853,8.2197594 19.4440776,8.70221611 20.3902583,9.58271282 L19.1184503,10.8129897 C18.4917592,10.234033 17.6869032,9.90837472 16.7038583,9.83600513 L16.7038583,13.7439436 L17.3305463,13.8344051 C18.4241838,14.0032675 19.2413276,14.3228951 19.7820023,14.7932974 C20.4947099,15.408439 20.8510583,16.2889225 20.8510583,17.4347744 Z M18.8788343,17.4890513 C18.8788343,16.8980329 18.706804,16.4517605 18.3627383,16.1502205 C18.301298,16.1019741 18.2367866,16.0537284 18.1692023,16.0054821 C18.1016179,15.9572357 18.0401786,15.918036 17.9848823,15.8878821 C17.929586,15.8577281 17.8589307,15.8305899 17.7729143,15.8064667 C17.6868979,15.7823435 17.6254585,15.761236 17.5885943,15.7431436 C17.5517301,15.7250512 17.4780028,15.7069591 17.3674103,15.6888667 C17.2568177,15.6707743 17.1861624,15.6587129 17.1554423,15.6526821 C17.1247221,15.6466513 17.0479229,15.6345898 16.9250423,15.6164974 C16.8021617,15.598405 16.7284344,15.589359 16.7038583,15.589359 L16.7038583,19.4249282 C17.3919897,19.3646202 17.9265124,19.1656068 18.3074423,18.8278821 C18.6883722,18.4901573 18.8788343,18.0438848 18.8788343,17.4890513 Z M15.5242103,13.6172974 L15.5242103,9.85409744 C14.8975192,9.91440543 14.409076,10.1224649 14.0588663,10.4782821 C13.7086565,10.8340992 13.5335543,11.283387 13.5335543,11.826159 C13.5335543,12.3327461 13.6994406,12.7307729 14.0312183,13.0202513 C14.3875721,13.3338529 14.8852311,13.5328662 15.5242103,13.6172974 Z" id="$" fill="#0069AA"></path>
        </g>
    </g>
</svg>