<svg xmlns="http://www.w3.org/2000/svg" width="48" height="48"><g fill="none" fill-rule="evenodd"><path stroke="#0069AA" stroke-width="1.6" d="M24 7l15.44 8.75v17.5L24 42 8.56 33.25v-17.5z"/><path stroke="#0069AA" stroke-width="1.6" d="M34.558 29.969l-10.293 5.833-10.294-5.833"/><path fill="#0069AA" d="M28.851 24.435c0 1.061-.362 1.92-1.087 2.578-.725.657-1.69 1.04-2.894 1.149v2.008h-1.512v-1.954c-1.732-.072-3.133-.64-4.202-1.7l1.327-1.285c.774.76 1.788 1.17 3.041 1.23v-4.016l-.479-.055c-1.032-.12-1.856-.464-2.47-1.03-.651-.604-.977-1.424-.977-2.461 0-1.038.335-1.894 1.005-2.57.67-.675 1.588-1.067 2.755-1.176v-1.628h1.512v1.61c1.4.085 2.574.567 3.52 1.448l-1.272 1.23c-.626-.579-1.431-.905-2.414-.977v3.908l.627.09c1.093.17 1.91.489 2.451.96.713.614 1.07 1.495 1.07 2.64zm-1.972.054c0-.591-.172-1.037-.516-1.339a5.29 5.29 0 0 0-.194-.145 1.836 1.836 0 0 0-.184-.117 1.028 1.028 0 0 0-.212-.082 1.192 1.192 0 0 1-.184-.063.933.933 0 0 0-.222-.054 9.15 9.15 0 0 1-.212-.036 6.93 6.93 0 0 0-.451-.064v3.836c.688-.06 1.223-.26 1.603-.597.381-.338.572-.784.572-1.339zm-3.355-3.872v-3.763c-.626.06-1.115.268-1.465.624-.35.356-.525.805-.525 1.348 0 .507.165.905.497 1.194.357.314.854.513 1.493.597z"/></g></svg>