<svg width="553" height="69" viewBox="0 0 553 69" fill="none" xmlns="http://www.w3.org/2000/svg">
<path fill-rule="evenodd" clip-rule="evenodd" d="M0.227955 68.9995C1.10677 68.377 1.96579 67.7852 2.806 67.1667C4.17766 66.1572 5.55921 65.1616 6.88732 64.0968C7.35147 63.7247 7.73841 63.2081 8.03729 62.6855C9.33175 60.4252 10.5906 58.143 11.8366 55.855C12.1226 55.3295 12.4709 55.1563 13.0825 55.1167C16.3781 54.9029 19.7102 54.6733 22.7207 53.1948C24.2329 52.4516 25.759 51.5886 26.8486 50.1763C27.4958 49.3371 28.2044 48.5375 28.9516 47.7854C29.2267 47.5082 29.676 47.343 30.0748 47.2618C30.823 47.1094 31.6029 46.9253 32.3481 46.9956C33.1071 47.0669 33.8652 47.3638 34.5758 47.6755C36.8599 48.6741 39.2242 49.2421 41.7151 48.9749C42.6998 48.87 43.6717 48.5484 44.6188 48.2366C45.1066 48.0763 45.4936 48.0664 45.7598 48.4959C46.3219 49.4005 47.1038 49.352 47.9875 49.1382C50.6259 48.5009 53.2703 47.8883 55.9146 47.2777C56.162 47.2203 56.4273 47.241 56.7578 47.2203C55.692 48.4613 54.6311 49.6053 53.678 50.8335C52.7171 52.0715 51.3147 52.6673 50.0806 53.5045C49.5819 53.843 49.3315 54.1844 49.4087 54.7941C49.4621 55.2127 49.4186 55.6422 49.4186 56.0677C49.4898 56.0954 49.5611 56.1241 49.6313 56.1519C53.778 52.4357 57.9256 48.7206 62.1851 44.9045C61.9931 44.2919 61.808 43.5912 61.5408 42.9232C61.4745 42.7559 61.1301 42.5768 60.9391 42.6025C59.3764 42.8084 57.8227 43.0687 56.263 43.2983C54.8913 43.5012 53.5167 43.6892 52.1421 43.8782C51.9996 43.898 51.8521 43.8802 51.576 43.8802C51.6186 43.0231 51.6581 42.1879 51.7017 41.3516C51.7086 41.2081 51.7423 41.0666 51.7502 40.9221C51.8501 39.1863 51.864 37.4405 52.0738 35.7185C52.2173 34.5428 52.6755 33.4097 52.914 32.2419C53.1614 31.0256 53.2733 29.7836 53.5177 28.5663C53.7552 27.3797 54.063 26.206 54.3975 25.0432C54.4529 24.8492 54.7825 24.6513 55.016 24.6038C56.5609 24.2821 58.1087 23.9724 59.6654 23.724C60.1286 23.6507 60.2206 23.4172 60.2275 23.0579C60.2404 22.4246 60.1583 21.7803 60.2503 21.1608C60.3641 20.3938 59.9237 20.1998 59.3497 20.0672C57.8395 19.7169 56.3382 19.3131 54.8131 19.0469C53.9818 18.9024 53.7958 18.3353 53.6849 17.7217C53.6058 17.2833 53.4158 17.1665 53.0328 17.1299C52.1737 17.0468 51.3147 16.9508 50.4587 16.836C49.9629 16.7697 49.7145 16.4678 49.7006 15.9493C49.663 14.5687 49.664 13.1832 49.5245 11.8125C49.4799 11.3771 49.0405 10.9812 48.7822 10.5675C48.7179 10.5913 48.6545 10.616 48.5902 10.6398C48.5249 11.094 48.5051 11.5612 48.3794 11.9986C48.2913 12.3074 48.0608 12.5755 47.8935 12.8606C47.6253 12.6963 47.3136 12.5765 47.0959 12.3618C46.1775 11.4543 45.8746 10.2657 45.7766 9.04348C45.6915 7.99049 44.9552 7.49963 44.1793 6.74947C44.0942 8.0281 44.021 9.11771 43.9369 10.3785C43.7063 10.1093 43.5193 9.94802 43.4035 9.74613C42.9047 8.87623 42.392 8.01227 41.9546 7.11069C41.7319 6.65348 41.6152 6.12995 41.5291 5.62424C41.4242 5.00274 41.153 4.83944 40.6077 5.1591C39.8793 5.58564 39.719 6.38033 39.9506 7.58771C40.2049 8.91186 41.2183 9.74713 41.8596 10.8189C43.0472 12.8022 45.0552 13.8641 46.7999 15.2179C47.3403 15.6375 47.7144 16.0621 47.6451 16.7855C46.6574 16.9053 45.6965 16.9706 44.7603 17.1586C44.3466 17.2418 43.8894 17.4971 43.6172 17.8148C43.07 18.4551 43.6816 19.3438 44.7167 19.4645C45.6203 19.5694 46.5248 19.6624 47.4205 19.7594C48.136 21.996 48.3774 24.1723 47.1038 26.2624C46.0221 28.0369 45.1264 29.9845 43.7637 31.5115C42.4257 33.0099 40.9768 34.522 38.8659 35.1752C36.7302 35.8363 34.6945 36.8151 32.5915 37.59C32.0898 37.775 31.494 37.7404 30.9408 37.7444C30.2164 37.7483 29.491 37.6889 28.7665 37.6582C27.1959 37.5919 25.6135 37.3901 24.0578 37.5138C23.1799 37.583 22.3397 38.1758 21.4916 38.5569C19.3559 39.5158 17.2232 40.4807 15.0945 41.4585C14.3295 41.8098 14.2563 42.2552 14.6383 42.9846C14.8362 43.3636 14.9342 43.8594 14.8976 44.2869C14.7115 46.4464 13.9307 48.4415 12.7847 50.2347C12.3156 50.9661 11.3081 51.3402 10.5886 51.93C10.1829 52.2625 9.76028 52.6495 9.52474 53.1037C8.17882 55.6976 6.83685 58.2954 5.60176 60.9428C5.13366 61.9453 4.47554 62.6756 3.60465 63.2922C2.53187 64.0512 1.50856 64.8835 0.406094 65.5931C-0.000652313 65.8554 -0.0184669 66.1325 0.008255 66.4907C0.0676346 67.2815 0.145817 68.0732 0.227955 68.9995Z" fill="url(#paint0_linear)"/>
<path d="M84.9599 26.5195H73.9199V54.9995H79.4799V44.2795H84.9599C90.8799 44.2795 94.3599 40.2395 94.3599 35.3995C94.3599 30.5595 90.8799 26.5195 84.9599 26.5195ZM79.4799 31.4795H84.6799C87.1999 31.4795 88.7999 33.0395 88.7999 35.3995C88.7999 37.7195 87.1999 39.3195 84.6799 39.3195H79.4799V31.4795Z" fill="#0068AC"/>
<path d="M118.264 54.9995L107.864 26.5195H103.504L93.1037 54.9995H98.9437L100.664 49.9595H110.744L112.424 54.9995H118.264ZM102.184 45.2795L105.704 34.9595L109.184 45.2795H102.184Z" fill="#0068AC"/>
<path d="M136.576 31.4795V26.5195H116.136V31.4795H123.576V54.9995H129.136V31.4795H136.576Z" fill="#0068AC"/>
<path d="M151.447 26.5195H140.287V54.9995H145.847V43.6395H149.847L155.407 54.9995H161.847L155.487 42.7195C158.247 41.7595 160.687 39.2395 160.687 35.2395C160.687 30.4795 157.287 26.5195 151.447 26.5195ZM145.847 31.4795H151.127C153.567 31.4795 155.127 32.9995 155.127 35.1995C155.127 37.4395 153.567 38.9595 151.127 38.9595H145.847V31.4795Z" fill="#0068AC"/>
<path d="M174.808 26.2795C171.528 26.2795 169.128 27.3595 167.168 29.2795C164.328 32.1195 164.288 35.3195 164.288 40.7595C164.288 46.1995 164.328 49.3995 167.168 52.2395C169.128 54.1595 171.528 55.2395 174.808 55.2395C178.088 55.2395 180.488 54.1595 182.448 52.2395C185.288 49.4395 185.328 46.1995 185.328 40.7595C185.328 35.3195 185.288 32.0795 182.448 29.2795C180.488 27.3595 178.088 26.2795 174.808 26.2795ZM174.808 31.2395C176.328 31.2395 177.568 31.8395 178.368 32.7595C179.448 33.9595 179.768 35.3195 179.768 40.7595C179.768 46.1995 179.448 47.5195 178.368 48.7195C177.568 49.6395 176.328 50.2795 174.808 50.2795C173.288 50.2795 172.048 49.6395 171.248 48.7195C170.168 47.5195 169.848 46.1995 169.848 40.7595C169.848 35.3195 170.168 33.9595 171.248 32.7595C172.048 31.8395 173.288 31.2395 174.808 31.2395Z" fill="#0068AC"/>
<path d="M212.009 54.9995V26.5195H206.449V43.9195L195.169 26.5195H190.209V54.9995H195.769V37.5995L207.089 54.9995H212.009Z" fill="#0068AC"/>
<path d="M238.424 45.2395V26.5195H232.864V45.0395C232.864 48.2795 230.904 50.2795 227.904 50.2795C224.904 50.2795 223.024 48.2795 223.024 45.0395V26.5195H217.464V45.2395C217.464 51.2795 222.064 55.2395 227.904 55.2395C233.784 55.2395 238.424 51.2795 238.424 45.2395Z" fill="#0068AC"/>
<path d="M252.322 26.2795C246.162 26.2795 242.402 29.8395 242.402 34.9195C242.402 37.3195 243.082 39.1995 244.442 40.5195C245.722 41.7595 247.562 42.5195 249.962 42.8795L253.362 43.3995C254.722 43.5995 255.362 43.8395 255.922 44.3595C256.522 44.9595 256.802 45.7595 256.802 46.7195C256.802 48.9995 255.042 50.2795 251.722 50.2795C249.122 50.2795 246.682 49.6795 244.882 47.8795L241.282 51.4795C244.082 54.3195 247.362 55.2395 251.682 55.2395C257.682 55.2395 262.242 52.1195 262.242 46.5995C262.242 44.0395 261.562 42.0395 260.042 40.5995C258.802 39.3995 257.202 38.7195 254.602 38.3595L251.202 37.8395C250.002 37.6795 249.162 37.2795 248.602 36.7595C248.002 36.1995 247.762 35.4795 247.762 34.7195C247.762 32.7595 249.202 31.1195 252.162 31.1195C254.762 31.1195 256.482 31.5595 258.002 33.0795L261.522 29.5995C259.082 27.2395 256.242 26.2795 252.322 26.2795Z" fill="#0068AC"/>
<line x1="302.5" y1="4.99951" x2="302.5" y2="68.9995" stroke="black"/>
<circle cx="362" cy="36.9995" r="32" fill="#F48024"/>
<path d="M269.11 33.0595C271.11 33.0595 272.73 31.4395 272.73 29.4395C272.73 27.4395 271.11 25.8195 269.11 25.8195C267.11 25.8195 265.49 27.4395 265.49 29.4395C265.49 31.4395 267.11 33.0595 269.11 33.0595ZM269.11 32.2495C267.55 32.2495 266.35 31.0495 266.35 29.4395C266.35 27.8295 267.55 26.6295 269.11 26.6295C270.67 26.6295 271.87 27.8295 271.87 29.4395C271.87 31.0495 270.67 32.2495 269.11 32.2495ZM267.79 27.5095V31.3595H268.65V29.8695H269.06L269.76 31.3595H270.74L269.93 29.7395C270.3 29.5895 270.64 29.2495 270.64 28.7195C270.64 28.0795 270.14 27.5095 269.36 27.5095H267.79ZM269.25 29.2195H268.65V28.2195H269.25C269.57 28.2195 269.78 28.4495 269.78 28.7195C269.78 28.9895 269.57 29.2195 269.25 29.2195Z" fill="#0068AC"/>
<path d="M388.11 67.0598C390.11 67.0598 391.73 65.4398 391.73 63.4398C391.73 61.4398 390.11 59.8198 388.11 59.8198C386.11 59.8198 384.49 61.4398 384.49 63.4398C384.49 65.4398 386.11 67.0598 388.11 67.0598ZM388.11 66.2498C386.55 66.2498 385.35 65.0498 385.35 63.4398C385.35 61.8298 386.55 60.6298 388.11 60.6298C389.67 60.6298 390.87 61.8298 390.87 63.4398C390.87 65.0498 389.67 66.2498 388.11 66.2498ZM386.79 61.5098V65.3598H387.65V63.8698H388.06L388.76 65.3598H389.74L388.93 63.7398C389.3 63.5898 389.64 63.2498 389.64 62.7198C389.64 62.0798 389.14 61.5098 388.36 61.5098H386.79ZM388.25 63.2198H387.65V62.2198H388.25C388.57 62.2198 388.78 62.4498 388.78 62.7198C388.78 62.9898 388.57 63.2198 388.25 63.2198Z" fill="#F48024"/>
<path d="M355.279 48.7581C354.449 46.5763 353.527 44.5332 352.964 42.3685C352.111 39.2554 352.29 36.1469 352.802 33.0184C353.16 30.6653 352.432 28.5106 350.479 27.0623C347.935 25.1832 346.881 22.615 346.638 19.6651C346.498 17.3418 347.273 15.2635 348.417 13.2296C348.81 12.5731 349.447 12.6348 349.873 13.0756C350.688 13.8927 351.439 14.747 351.996 15.7128C352.591 16.743 353.332 17.4313 354.524 17.8594C359.124 19.5818 363.266 21.9979 366.519 25.6998C367.344 26.6829 368.105 27.7031 368.672 28.8348C369.193 29.7363 369.805 30.4989 370.583 31.2517C372.454 33.0047 374.233 34.8964 376.113 36.8154C377.844 36.2452 379.796 35.4619 381.693 34.8817C383.065 34.4329 384.511 34.1129 385.93 33.8945C387.516 33.6661 389.45 33.1503 390.416 34.8244C391.42 36.5628 390.043 38.0444 388.952 39.2758C387.364 41.1364 385.639 42.9055 383.7 44.4541C375.31 51.1865 365.974 56.5767 355.56 60.0996C353.7 60.7442 351.719 61.0297 349.775 61.3795C348.918 61.5309 347.976 61.3876 347.099 61.207C345.918 60.9449 345.435 60.1078 345.798 58.9535C346.108 58.0023 346.583 57.0411 347.234 56.2359C349.113 53.6916 351.584 51.578 354.066 49.6304C354.544 49.2686 354.957 48.944 355.279 48.7581Z" fill="white"/>
<path d="M450.968 39.1836H432.104V41.2716C439.232 41.8476 439.664 42.2796 439.664 47.4636V53.7276C439.664 56.5356 438.872 57.5436 437.504 58.2636C436.064 59.0556 433.904 59.4876 431.672 59.4876C418.136 59.4876 412.16 47.5356 412.16 37.0236C412.16 23.8476 420.152 15.7836 430.664 15.7836C437.576 15.7836 442.976 18.3756 444.704 27.0156L446.864 26.5836C446.288 21.6156 445.928 17.6556 445.712 15.2076C443.336 14.7036 437.864 13.1196 431.816 13.1196C417.56 13.1196 404.168 21.3276 404.168 37.9596C404.168 52.2876 414.752 62.0796 430.808 62.0796C436.496 62.0796 442.544 60.4956 446.936 59.4156C446.504 57.4716 446.432 55.1676 446.432 52.6476V46.5996C446.432 42.2796 446.792 41.9196 450.968 41.2716V39.1836Z" fill="#0068AC"/>
<path d="M504.449 14.1996H487.313V16.2876C492.425 16.5756 494.081 17.5836 494.441 20.7516C494.657 22.8396 494.945 26.1516 494.945 32.7036V49.4796H494.729L465.137 14.1996H453.977V16.2876C457.361 16.5756 458.873 17.1516 460.313 18.9516C461.681 20.6796 461.825 21.1836 461.825 26.2956V41.9916C461.825 48.5436 461.537 51.9996 461.321 54.2316C460.961 57.6876 459.161 58.6236 455.057 58.9116V60.9996H472.193V58.9116C467.225 58.6236 465.641 57.6156 465.281 54.0876C465.065 51.9996 464.849 48.5436 464.849 41.9916V24.2796H464.993L495.521 61.6476H497.969V32.7036C497.969 26.0796 498.185 22.8396 498.401 20.6076C498.761 17.4396 500.417 16.5036 504.449 16.2876V14.1996Z" fill="#0068AC"/>
<path d="M549.907 48.2556C546.235 55.3836 542.347 59.3436 535.219 59.3436C524.419 59.3436 516.715 50.1996 516.715 36.8076C516.715 25.9356 522.979 15.8556 534.715 15.8556C542.131 15.8556 546.667 18.8076 548.611 26.5836L550.843 26.0796C550.411 22.1196 549.907 19.0956 549.331 15.0636C547.387 14.7036 542.419 13.1196 536.587 13.1196C520.243 13.1196 508.651 23.1276 508.651 38.2476C508.651 49.6236 516.571 62.0796 534.715 62.0796C539.827 62.0796 545.947 60.6396 547.963 60.1356C549.259 57.7596 551.059 52.3596 552.067 49.0476L549.907 48.2556Z" fill="#0068AC"/>
<defs>
<linearGradient id="paint0_linear" x1="31.0926" y1="4.99951" x2="31.0926" y2="68.9995" gradientUnits="userSpaceOnUse">
<stop stop-color="#FEE9D1"/>
<stop offset="1" stop-color="#F48024"/>
</linearGradient>
</defs>
</svg>
