<svg xmlns="http://www.w3.org/2000/svg" width="632" height="69" fill="none"><path fill="#0068AC" d="M430.96 38.72h-11.32V40c4.08.36 4.32.64 4.32 3.44v3.68c0 1.36-.4 1.96-1.04 2.36-.68.36-1.68.56-2.72.56-6.96 0-10.08-6.48-10.08-12.4 0-7.24 4.28-11.64 9.56-11.64 3.76 0 6.76 1.68 7.76 6.28l1.36-.24c-.32-3-.52-5.12-.64-6.52-1.4-.28-4.48-1.12-7.76-1.12-8.2 0-15.64 4.68-15.64 13.88 0 7.96 5.92 13.32 15.04 13.32 3.2 0 6.64-.88 9.08-1.48-.24-1.04-.28-2.32-.28-3.76v-3.28c0-2.52.24-2.72 2.36-3.08v-1.28zm26.946 11.44c-.92-.28-1.68-.76-2.6-1.8-.88-.88-1.72-2.08-3.16-4.28-1.2-1.8-2.72-4.48-3.36-5.72 2.76-1.16 5.04-3.12 5.04-6.6 0-2.48-1.08-4.24-2.68-5.32-1.6-1.04-3.6-1.44-6.88-1.44h-10.76v1.32c3 .24 3.36.56 3.36 3.84V45.8c0 3.32-.44 3.64-3.52 3.92V51h11.52v-1.28c-3.08-.28-3.44-.64-3.44-3.92v-6.04h.92c1.56 0 2.28.48 2.92 1.68 1.16 2.04 2.4 4.32 3.56 6.08 1.68 2.56 3.28 3.6 7.6 3.8.44 0 .92.04 1.24.04l.24-1.2zm-16.48-11.88v-9.8c0-.92.08-1.36.36-1.6.28-.2.88-.4 1.92-.4 2.56 0 5.12 1.6 5.12 5.88 0 2.08-.6 3.68-2 4.84-.92.76-2.24 1.08-4.08 1.08h-1.32zM470.766 51v-1.28c-3.08-.28-3.4-.56-3.4-3.92V30.24c0-3.4.32-3.68 3.4-3.92V25h-11.48v1.32c3.08.24 3.44.52 3.44 3.92V45.8c0 3.4-.36 3.64-3.44 3.92V51h11.48zm30.45-26h-9.64v1.28c2.88.16 3.72.8 3.96 2.52.08 1.16.28 3.04.28 6.64v8h-.12L479.896 25h-6.88v1.28c1.8.16 2.64.48 3.44 1.48.76.92.8 1.48.8 4.2v8.52c0 3.56-.2 5.36-.32 6.68-.2 1.8-1.16 2.4-3.4 2.56V51h9.68v-1.28c-2.88-.16-3.64-.8-3.84-2.68-.12-1.2-.28-3-.28-6.56v-9.4h.08l16.8 20.32h1.68V35.44c0-3.6.16-5.48.32-6.68.2-1.8 1.08-2.36 3.24-2.48V25zm28.377 13.72h-11.32V40c4.08.36 4.32.64 4.32 3.44v3.68c0 1.36-.4 1.96-1.04 2.36-.68.36-1.68.56-2.72.56-6.96 0-10.08-6.48-10.08-12.4 0-7.24 4.28-11.64 9.56-11.64 3.76 0 6.76 1.68 7.76 6.28l1.36-.24c-.32-3-.52-5.12-.64-6.52-1.4-.28-4.48-1.12-7.76-1.12-8.2 0-15.64 4.68-15.64 13.88 0 7.96 5.92 13.32 15.04 13.32 3.2 0 6.64-.88 9.08-1.48-.24-1.04-.28-2.32-.28-3.76v-3.28c0-2.52.24-2.72 2.36-3.08v-1.28zm16.466-14.32c-8.84 0-13.8 6.76-13.8 13.72 0 7.68 5.6 13.48 13.32 13.48 7.48 0 13.64-5.28 13.64-13.88 0-7.96-6.04-13.32-13.16-13.32zm-.76 1.6c4.88 0 8.52 4.68 8.52 12.8 0 7.48-3.4 11.2-7.44 11.2-5.32 0-8.72-5.68-8.72-12.76 0-7.12 3.48-11.24 7.64-11.24zm39.325 5.52c-.2-2.48-.4-5.8-.4-7.52h-.92c-.68.76-1.16 1-2.2 1h-16c-1.12 0-1.64-.08-2.24-1h-.92c-.08 2.08-.32 4.92-.48 7.64h1.36c.48-1.92.92-3.2 1.52-3.88.56-.76 1.32-1.12 4.6-1.12h1.8V45.8c0 3.32-.4 3.64-3.84 3.92V51h12.48v-1.28c-3.64-.28-4-.6-4-3.92V26.64h2.16c2.6 0 3.48.24 4.2 1.04.6.68 1.08 1.92 1.56 3.92l1.32-.08zm26.211 0c-.2-2.48-.4-5.8-.4-7.52h-.92c-.68.76-1.16 1-2.2 1h-16c-1.12 0-1.64-.08-2.24-1h-.92c-.08 2.08-.32 4.92-.48 7.64h1.36c.48-1.92.92-3.2 1.52-3.88.56-.76 1.32-1.12 4.6-1.12h1.8V45.8c0 3.32-.4 3.64-3.84 3.92V51h12.48v-1.28c-3.64-.28-4-.6-4-3.92V26.64h2.16c2.6 0 3.48.24 4.2 1.04.6.68 1.08 1.92 1.56 3.92l1.32-.08zm18.545-.44c-.32-2.52-.56-4.2-.72-5.68-1.04-.32-3.08-1-5.4-1-5.48 0-8.8 3.4-8.8 7.56 0 4.08 3.28 6.2 6.84 8.04 3 1.56 4.92 3.04 4.92 5.6 0 2.68-1.64 4.44-4.32 4.44-3.92 0-6.08-4.32-6.8-6.84l-1.36.4c.28 2.24.8 5.6 1.16 6.56.48.24 1.2.52 2.28.84 1.08.36 2.44.6 3.96.6 5.68 0 9.44-3.48 9.44-7.92 0-4.16-3.2-6.24-7-8.16-3.4-1.68-5.04-3-5.04-5.48 0-2.24 1.56-4.08 4.08-4.08 3.32 0 4.68 2.88 5.48 5.4l1.28-.28z"/><path fill="#F48024" d="M388.11 66.747c2 0 3.62-1.62 3.62-3.62s-1.62-3.62-3.62-3.62-3.62 1.62-3.62 3.62 1.62 3.62 3.62 3.62zm0-.81c-1.56 0-2.76-1.2-2.76-2.81s1.2-2.81 2.76-2.81c1.56 0 2.76 1.2 2.76 2.81s-1.2 2.81-2.76 2.81zm-1.32-4.74v3.85h.86v-1.49h.41l.7 1.49h.98l-.81-1.62c.37-.15.71-.49.71-1.02 0-.64-.5-1.21-1.28-1.21h-1.57zm1.46 1.71h-.6v-1h.6c.32 0 .53.23.53.5s-.21.5-.53.5z"/><circle cx="362" cy="36.687" r="32" fill="#F48024"/><path fill="#fff" d="M355.279 48.445c-.83-2.182-1.752-4.225-2.315-6.39-.853-3.113-.674-6.221-.162-9.35.358-2.353-.37-4.507-2.323-5.956-2.544-1.879-3.598-4.447-3.841-7.397-.14-2.323.635-4.402 1.779-6.435.393-.657 1.03-.595 1.456-.154.815.817 1.566 1.671 2.123 2.637.595 1.03 1.336 1.718 2.528 2.146 4.6 1.723 8.742 4.139 11.995 7.84.825.984 1.586 2.004 2.153 3.136a10.823 10.823 0 0 0 1.911 2.417c1.871 1.753 3.65 3.645 5.53 5.563 1.731-.57 3.683-1.353 5.58-1.933a26.884 26.884 0 0 1 4.237-.988c1.586-.228 3.52-.744 4.486.93 1.004 1.739-.373 3.22-1.464 4.452-1.588 1.86-3.313 3.63-5.252 5.178-8.39 6.733-17.726 12.123-28.14 15.646-1.86.644-3.841.93-5.785 1.28-.857.15-1.799.008-2.676-.173-1.181-.262-1.664-1.1-1.301-2.253.31-.952.785-1.913 1.436-2.718 1.879-2.544 4.35-4.658 6.832-6.606.478-.361.891-.686 1.213-.872z"/><path stroke="#000" d="M302.5 4.687v63.999"/><path fill="#0068AC" d="M269.11 32.746c2 0 3.62-1.62 3.62-3.62s-1.62-3.62-3.62-3.62-3.62 1.62-3.62 3.62 1.62 3.62 3.62 3.62zm0-.81c-1.56 0-2.76-1.2-2.76-2.81s1.2-2.81 2.76-2.81c1.56 0 2.76 1.2 2.76 2.81s-1.2 2.81-2.76 2.81zm-1.32-4.74v3.85h.86v-1.49h.41l.7 1.49h.98l-.81-1.62c.37-.15.71-.49.71-1.02 0-.64-.5-1.21-1.28-1.21h-1.57zm1.46 1.71h-.6v-1h.6c.32 0 .53.23.53.5s-.21.5-.53.5zM84.96 26.206H73.92v28.48h5.56v-10.72h5.48c5.92 0 9.4-4.04 9.4-8.88 0-4.84-3.48-8.88-9.4-8.88zm-5.48 4.96h5.2c2.52 0 4.12 1.56 4.12 3.92 0 2.32-1.6 3.92-4.12 3.92h-5.2v-7.84zm38.783 23.52l-10.4-28.48h-4.36l-10.4 28.48h5.84l1.72-5.04h10.08l1.68 5.04h5.84zm-16.08-9.72l3.52-10.32 3.48 10.32h-7zm34.392-13.8v-4.96h-20.44v4.96h7.44v23.52h5.56v-23.52h7.44zm14.872-4.96h-11.16v28.48h5.56v-11.36h4l5.56 11.36h6.44l-6.36-12.28c2.76-.96 5.2-3.48 5.2-7.48 0-4.76-3.4-8.72-9.24-8.72zm-5.6 4.96h5.28c2.44 0 4 1.52 4 3.72 0 2.24-1.56 3.76-4 3.76h-5.28v-7.48zm28.961-5.2c-3.28 0-5.68 1.08-7.64 3-2.84 2.84-2.88 6.04-2.88 11.48s.04 8.64 2.88 11.48c1.96 1.92 4.36 3 7.64 3 3.28 0 5.68-1.08 7.64-3 2.84-2.8 2.88-6.04 2.88-11.48s-.04-8.68-2.88-11.48c-1.96-1.92-4.36-3-7.64-3zm0 4.96c1.52 0 2.76.6 3.56 1.52 1.08 1.2 1.4 2.56 1.4 8 0 5.44-.32 6.76-1.4 7.96-.8.92-2.04 1.56-3.56 1.56s-2.76-.64-3.56-1.56c-1.08-1.2-1.4-2.52-1.4-7.96 0-5.44.32-6.8 1.4-8 .8-.92 2.04-1.52 3.56-1.52zm37.201 23.76v-28.48h-5.56v17.4l-11.28-17.4h-4.96v28.48h5.56v-17.4l11.32 17.4h4.92zm26.415-9.76v-18.72h-5.56v18.52c0 3.24-1.96 5.24-4.96 5.24s-4.88-2-4.88-5.24v-18.52h-5.56v18.72c0 6.04 4.6 10 10.44 10 5.88 0 10.52-3.96 10.52-10zm13.897-18.96c-6.16 0-9.92 3.56-9.92 8.64 0 2.4.68 4.28 2.04 5.6 1.28 1.24 3.12 2 5.52 2.36l3.4.52c1.36.2 2 .44 2.56.96.6.6.88 1.4.88 2.36 0 2.28-1.76 3.56-5.08 3.56-2.6 0-5.04-.6-6.84-2.4l-3.6 3.6c2.8 2.84 6.08 3.76 10.4 3.76 6 0 10.56-3.12 10.56-8.64 0-2.56-.68-4.56-2.2-6-1.24-1.2-2.84-1.88-5.44-2.24l-3.4-.52c-1.2-.16-2.04-.56-2.6-1.08-.6-.56-.84-1.28-.84-2.04 0-1.96 1.44-3.6 4.4-3.6 2.6 0 4.32.44 5.84 1.96l3.52-3.48c-2.44-2.36-5.28-3.32-9.2-3.32z"/><path fill="url(#paint0_linear)" fill-rule="evenodd" d="M.228 68.686c.879-.622 1.738-1.214 2.578-1.832 1.372-1.01 2.753-2.005 4.081-3.07.464-.372.851-.889 1.15-1.411a364.854 364.854 0 0 0 3.8-6.831c.286-.526.634-.699 1.245-.738 3.296-.214 6.628-.444 9.639-1.922 1.512-.743 3.038-1.606 4.128-3.019a25.499 25.499 0 0 1 2.103-2.39c.275-.278.724-.443 1.123-.524.748-.153 1.528-.337 2.273-.266.76.07 1.517.368 2.228.68 2.284.998 4.648 1.566 7.14 1.299.984-.105 1.956-.427 2.903-.738.488-.16.875-.17 1.14.259.563.904 1.345.856 2.228.642 2.639-.637 5.283-1.25 7.928-1.86.247-.058.512-.037.843-.058-1.066 1.241-2.127 2.385-3.08 3.614-.96 1.237-2.363 1.833-3.597 2.67-.5.339-.75.68-.672 1.29.053.419.01.848.01 1.274l.212.084 12.554-11.247c-.192-.613-.377-1.314-.644-1.982-.066-.167-.41-.346-.602-.32-1.563.205-3.116.466-4.676.695-1.372.203-2.746.391-4.12.58-.143.02-.29.002-.567.002.043-.857.082-1.692.126-2.528.007-.144.04-.285.048-.43.1-1.736.114-3.482.324-5.203.143-1.176.602-2.31.84-3.477.247-1.216.36-2.458.604-3.676.237-1.186.545-2.36.88-3.523.055-.194.384-.392.618-.44a100.58 100.58 0 0 1 4.65-.879c.463-.073.555-.307.562-.666.012-.633-.07-1.278.022-1.897.114-.767-.326-.961-.9-1.094-1.51-.35-3.012-.754-4.537-1.02-.831-.145-1.017-.712-1.128-1.325-.08-.439-.27-.555-.652-.592-.86-.083-1.718-.18-2.574-.294-.496-.066-.745-.368-.758-.887-.038-1.38-.037-2.766-.176-4.136-.045-.436-.484-.832-.743-1.245l-.192.072c-.065.454-.085.921-.21 1.359-.089.308-.32.577-.486.862-.269-.165-.58-.284-.798-.5-.918-.907-1.221-2.095-1.32-3.318-.085-1.052-.82-1.543-1.597-2.294l-.242 3.63c-.23-.27-.418-.431-.533-.633-.5-.87-1.012-1.734-1.45-2.635-.222-.458-.339-.981-.425-1.487-.105-.621-.376-.785-.921-.465-.729.427-.889 1.221-.657 2.429.254 1.324 1.267 2.16 1.909 3.23 1.187 1.984 3.195 3.046 4.94 4.4.54.42.914.844.845 1.568-.988.12-1.949.185-2.885.373-.413.083-.87.338-1.143.656-.547.64.065 1.529 1.1 1.65.903.104 1.808.197 2.703.294.716 2.237.957 4.413-.316 6.503-1.082 1.775-1.978 3.723-3.34 5.25-1.338 1.498-2.787 3.01-4.898 3.663-2.136.661-4.172 1.64-6.274 2.415-.502.185-1.098.15-1.651.154-.725.004-1.45-.055-2.174-.086-1.571-.066-3.154-.268-4.71-.144-.877.07-1.717.662-2.565 1.043a818.131 818.131 0 0 0-6.398 2.901c-.764.352-.838.797-.456 1.527a2.5 2.5 0 0 1 .26 1.302c-.187 2.16-.967 4.155-2.113 5.948-.47.731-1.477 1.105-2.196 1.695-.406.333-.829.72-1.064 1.174-1.346 2.594-2.688 5.192-3.923 7.839-.468 1.002-1.126 1.733-1.997 2.35-1.073.758-2.096 1.59-3.199 2.3-.407.262-.424.54-.398.898.06.79.138 1.582.22 2.508z" clip-rule="evenodd"/><defs><linearGradient id="paint0_linear" x1="31.093" x2="31.093" y1="4.687" y2="68.686" gradientUnits="userSpaceOnUse"><stop stop-color="#FEE9D1"/><stop offset="1" stop-color="#F48024"/></linearGradient></defs></svg>