<svg width="631" height="69" viewBox="0 0 631 69" fill="none" xmlns="http://www.w3.org/2000/svg">
<path fill-rule="evenodd" clip-rule="evenodd" d="M0.227957 68.6865C1.10677 68.064 1.96579 67.4722 2.806 66.8537C4.17766 65.8442 5.55921 64.8487 6.88732 63.7838C7.35147 63.4117 7.73842 62.8951 8.03729 62.3725C9.33175 60.1122 10.5906 57.83 11.8366 55.542C12.1226 55.0165 12.4709 54.8433 13.0825 54.8037C16.3781 54.5899 19.7102 54.3603 22.7207 52.8818C24.2329 52.1386 25.759 51.2756 26.8486 49.8634C27.4958 49.0241 28.2044 48.2245 28.9516 47.4724C29.2267 47.1953 29.676 47.03 30.0748 46.9488C30.823 46.7964 31.6029 46.6124 32.3481 46.6826C33.1071 46.7539 33.8652 47.0508 34.5758 47.3625C36.8599 48.3611 39.2242 48.9291 41.7151 48.6619C42.6998 48.557 43.6717 48.2354 44.6188 47.9236C45.1067 47.7633 45.4936 47.7534 45.7598 48.1829C46.3219 49.0875 47.1038 49.039 47.9875 48.8252C50.6259 48.1879 53.2703 47.5753 55.9146 46.9647C56.162 46.9073 56.4273 46.9281 56.7578 46.9073C55.692 48.1483 54.6311 49.2923 53.678 50.5205C52.7171 51.7585 51.3147 52.3543 50.0806 53.1916C49.5819 53.53 49.3315 53.8714 49.4087 54.4811C49.4621 54.8997 49.4186 55.3292 49.4186 55.7548C49.4898 55.7825 49.5611 55.8112 49.6313 55.8389C53.778 52.1227 57.9256 48.4076 62.1851 44.5915C61.9931 43.9789 61.808 43.2782 61.5408 42.6102C61.4745 42.443 61.1301 42.2638 60.9391 42.2896C59.3764 42.4954 57.8227 42.7557 56.263 42.9853C54.8913 43.1882 53.5167 43.3762 52.1421 43.5652C51.9996 43.585 51.8521 43.5672 51.576 43.5672C51.6186 42.7102 51.6581 41.8749 51.7017 41.0386C51.7086 40.8951 51.7423 40.7536 51.7502 40.6091C51.8501 38.8733 51.864 37.1275 52.0738 35.4055C52.2173 34.2298 52.6755 33.0967 52.914 31.9289C53.1614 30.7126 53.2733 29.4706 53.5177 28.2533C53.7552 27.0667 54.063 25.893 54.3975 24.7302C54.4529 24.5362 54.7825 24.3383 55.016 24.2908C56.5609 23.9691 58.1087 23.6594 59.6654 23.411C60.1286 23.3377 60.2206 23.1042 60.2275 22.7449C60.2404 22.1116 60.1583 21.4673 60.2503 20.8478C60.3641 20.0808 59.9237 19.8868 59.3497 19.7542C57.8395 19.4039 56.3382 19.0001 54.8131 18.7339C53.9818 18.5894 53.7958 18.0223 53.6849 17.4087C53.6058 16.9703 53.4158 16.8536 53.0328 16.8169C52.1738 16.7338 51.3147 16.6378 50.4587 16.523C49.9629 16.4567 49.7145 16.1549 49.7006 15.6363C49.663 14.2557 49.664 12.8702 49.5245 11.4995C49.4799 11.0641 49.0405 10.6682 48.7822 10.2546C48.7179 10.2783 48.6545 10.303 48.5902 10.3268C48.5249 10.7811 48.5051 11.2482 48.3794 11.6856C48.2913 11.9944 48.0608 12.2626 47.8935 12.5476C47.6253 12.3833 47.3136 12.2635 47.0959 12.0488C46.1775 11.1413 45.8746 9.95271 45.7766 8.73049C45.6915 7.67751 44.9552 7.18664 44.1794 6.43648C44.0942 7.71511 44.021 8.80472 43.9369 10.0655C43.7063 9.79635 43.5193 9.63503 43.4035 9.43315C42.9047 8.56324 42.392 7.69928 41.9546 6.79771C41.7319 6.34049 41.6152 5.81696 41.5291 5.31125C41.4242 4.68975 41.153 4.52646 40.6077 4.84611C39.8793 5.27265 39.719 6.06734 39.9506 7.27472C40.2049 8.59887 41.2183 9.43414 41.8596 10.5059C43.0472 12.4892 45.0552 13.5511 46.7999 14.9049C47.3403 15.3245 47.7144 15.7491 47.6451 16.4725C46.6574 16.5923 45.6965 16.6576 44.7603 16.8456C44.3466 16.9288 43.8894 17.1841 43.6172 17.5018C43.07 18.1421 43.6816 19.0308 44.7167 19.1515C45.6203 19.2564 46.5248 19.3494 47.4205 19.4464C48.136 21.683 48.3774 23.8593 47.1038 25.9494C46.0221 27.7239 45.1264 29.6715 43.7637 31.1985C42.4257 32.6969 40.9768 34.2091 38.8659 34.8622C36.7302 35.5233 34.6945 36.5021 32.5915 37.277C32.0898 37.462 31.494 37.4274 30.9408 37.4314C30.2164 37.4353 29.491 37.3759 28.7665 37.3453C27.196 37.279 25.6135 37.0771 24.0578 37.2008C23.1799 37.27 22.3397 37.8629 21.4916 38.2439C19.3559 39.2028 17.2232 40.1677 15.0945 41.1455C14.3295 41.4968 14.2563 41.9422 14.6383 42.6716C14.8362 43.0506 14.9342 43.5464 14.8976 43.9739C14.7115 46.1334 13.9307 48.1285 12.7847 49.9217C12.3156 50.6531 11.3081 51.0272 10.5886 51.617C10.1829 51.9495 9.76028 52.3365 9.52474 52.7907C8.17882 55.3846 6.83685 57.9825 5.60176 60.6298C5.13366 61.6323 4.47554 62.3626 3.60465 62.9792C2.53187 63.7383 1.50857 64.5706 0.406094 65.2801C-0.00065246 65.5424 -0.0184666 65.8195 0.00825399 66.1778C0.067633 66.9685 0.145816 67.7602 0.227957 68.6865Z" fill="url(#paint0_linear)"/>
<path d="M84.9599 26.2066H73.9199V54.6866H79.4799V43.9666H84.9599C90.8799 43.9666 94.3599 39.9266 94.3599 35.0866C94.3599 30.2466 90.8799 26.2066 84.9599 26.2066ZM79.4799 31.1666H84.6799C87.1999 31.1666 88.7999 32.7266 88.7999 35.0866C88.7999 37.4066 87.1999 39.0066 84.6799 39.0066H79.4799V31.1666Z" fill="#0068AC"/>
<path d="M118.264 54.6866L107.864 26.2066H103.504L93.1037 54.6866H98.9437L100.664 49.6466H110.744L112.424 54.6866H118.264ZM102.184 44.9666L105.704 34.6466L109.184 44.9666H102.184Z" fill="#0068AC"/>
<path d="M136.576 31.1666V26.2066H116.136V31.1666H123.576V54.6866H129.136V31.1666H136.576Z" fill="#0068AC"/>
<path d="M151.447 26.2066H140.287V54.6866H145.847V43.3266H149.847L155.407 54.6866H161.847L155.487 42.4066C158.247 41.4466 160.687 38.9266 160.687 34.9266C160.687 30.1666 157.287 26.2066 151.447 26.2066ZM145.847 31.1666H151.127C153.567 31.1666 155.127 32.6866 155.127 34.8866C155.127 37.1266 153.567 38.6466 151.127 38.6466H145.847V31.1666Z" fill="#0068AC"/>
<path d="M174.808 25.9666C171.528 25.9666 169.128 27.0466 167.168 28.9666C164.328 31.8066 164.288 35.0066 164.288 40.4466C164.288 45.8866 164.328 49.0866 167.168 51.9266C169.128 53.8466 171.528 54.9266 174.808 54.9266C178.088 54.9266 180.488 53.8466 182.448 51.9266C185.288 49.1266 185.328 45.8866 185.328 40.4466C185.328 35.0066 185.288 31.7666 182.448 28.9666C180.488 27.0466 178.088 25.9666 174.808 25.9666ZM174.808 30.9266C176.328 30.9266 177.568 31.5266 178.368 32.4466C179.448 33.6466 179.768 35.0066 179.768 40.4466C179.768 45.8866 179.448 47.2066 178.368 48.4066C177.568 49.3266 176.328 49.9666 174.808 49.9666C173.288 49.9666 172.048 49.3266 171.248 48.4066C170.168 47.2066 169.848 45.8866 169.848 40.4466C169.848 35.0066 170.168 33.6466 171.248 32.4466C172.048 31.5266 173.288 30.9266 174.808 30.9266Z" fill="#0068AC"/>
<path d="M212.009 54.6866V26.2066H206.449V43.6066L195.169 26.2066H190.209V54.6866H195.769V37.2866L207.089 54.6866H212.009Z" fill="#0068AC"/>
<path d="M238.424 44.9266V26.2066H232.864V44.7266C232.864 47.9666 230.904 49.9666 227.904 49.9666C224.904 49.9666 223.024 47.9666 223.024 44.7266V26.2066H217.464V44.9266C217.464 50.9666 222.064 54.9266 227.904 54.9266C233.784 54.9266 238.424 50.9666 238.424 44.9266Z" fill="#0068AC"/>
<path d="M252.322 25.9666C246.162 25.9666 242.402 29.5266 242.402 34.6066C242.402 37.0066 243.082 38.8866 244.442 40.2066C245.722 41.4466 247.562 42.2066 249.962 42.5666L253.362 43.0866C254.722 43.2866 255.362 43.5266 255.922 44.0466C256.522 44.6466 256.802 45.4466 256.802 46.4066C256.802 48.6866 255.042 49.9666 251.722 49.9666C249.122 49.9666 246.682 49.3666 244.882 47.5666L241.282 51.1666C244.082 54.0066 247.362 54.9266 251.682 54.9266C257.682 54.9266 262.242 51.8066 262.242 46.2866C262.242 43.7266 261.562 41.7266 260.042 40.2866C258.802 39.0866 257.202 38.4066 254.602 38.0466L251.202 37.5266C250.002 37.3666 249.162 36.9666 248.602 36.4466C248.002 35.8866 247.762 35.1666 247.762 34.4066C247.762 32.4466 249.202 30.8066 252.162 30.8066C254.762 30.8066 256.482 31.2466 258.002 32.7666L261.522 29.2866C259.082 26.9266 256.242 25.9666 252.322 25.9666Z" fill="#0068AC"/>
<line x1="302.5" y1="4.68652" x2="302.5" y2="68.6865" stroke="black"/>
<circle cx="362" cy="36.6865" r="32" fill="#F48024"/>
<path d="M269.11 32.7465C271.11 32.7465 272.73 31.1265 272.73 29.1265C272.73 27.1265 271.11 25.5065 269.11 25.5065C267.11 25.5065 265.49 27.1265 265.49 29.1265C265.49 31.1265 267.11 32.7465 269.11 32.7465ZM269.11 31.9365C267.55 31.9365 266.35 30.7365 266.35 29.1265C266.35 27.5165 267.55 26.3165 269.11 26.3165C270.67 26.3165 271.87 27.5165 271.87 29.1265C271.87 30.7365 270.67 31.9365 269.11 31.9365ZM267.79 27.1965V31.0465H268.65V29.5565H269.06L269.76 31.0465H270.74L269.93 29.4265C270.3 29.2765 270.64 28.9365 270.64 28.4065C270.64 27.7665 270.14 27.1965 269.36 27.1965H267.79ZM269.25 28.9065H268.65V27.9065H269.25C269.57 27.9065 269.78 28.1365 269.78 28.4065C269.78 28.6765 269.57 28.9065 269.25 28.9065Z" fill="#0068AC"/>
<path d="M388.11 66.7468C390.11 66.7468 391.73 65.1268 391.73 63.1268C391.73 61.1268 390.11 59.5068 388.11 59.5068C386.11 59.5068 384.49 61.1268 384.49 63.1268C384.49 65.1268 386.11 66.7468 388.11 66.7468ZM388.11 65.9368C386.55 65.9368 385.35 64.7368 385.35 63.1268C385.35 61.5168 386.55 60.3168 388.11 60.3168C389.67 60.3168 390.87 61.5168 390.87 63.1268C390.87 64.7368 389.67 65.9368 388.11 65.9368ZM386.79 61.1968V65.0468H387.65V63.5568H388.06L388.76 65.0468H389.74L388.93 63.4268C389.3 63.2768 389.64 62.9368 389.64 62.4068C389.64 61.7668 389.14 61.1968 388.36 61.1968H386.79ZM388.25 62.9068H387.65V61.9068H388.25C388.57 61.9068 388.78 62.1368 388.78 62.4068C388.78 62.6768 388.57 62.9068 388.25 62.9068Z" fill="#F48024"/>
<path d="M355.279 48.4451C354.449 46.2633 353.527 44.2202 352.964 42.0556C352.111 38.9424 352.29 35.8339 352.802 32.7054C353.16 30.3523 352.432 28.1976 350.479 26.7493C347.935 24.8702 346.881 22.302 346.638 19.3521C346.498 17.0289 347.273 14.9505 348.417 12.9166C348.81 12.2601 349.447 12.3219 349.873 12.7626C350.688 13.5797 351.439 14.434 351.996 15.3998C352.591 16.43 353.332 17.1183 354.524 17.5464C359.124 19.2689 363.266 21.685 366.519 25.3868C367.344 26.3699 368.105 27.3901 368.672 28.5219C369.193 29.4233 369.805 30.186 370.583 30.9387C372.454 32.6917 374.233 34.5835 376.113 36.5024C377.844 35.9322 379.796 35.1489 381.693 34.5687C383.065 34.1199 384.511 33.7999 385.93 33.5815C387.516 33.3531 389.45 32.8373 390.416 34.5114C391.42 36.2498 390.043 37.7314 388.952 38.9628C387.364 40.8234 385.639 42.5925 383.7 44.1411C375.31 50.8735 365.974 56.2637 355.56 59.7866C353.7 60.4312 351.719 60.7167 349.775 61.0666C348.918 61.2179 347.976 61.0746 347.099 60.894C345.918 60.6319 345.435 59.7948 345.798 58.6405C346.108 57.6893 346.583 56.7281 347.234 55.9229C349.113 53.3786 351.584 51.265 354.066 49.3174C354.544 48.9556 354.957 48.631 355.279 48.4451Z" fill="white"/>
<path d="M430.96 38.72H419.64V40C423.72 40.36 423.96 40.64 423.96 43.44V47.12C423.96 48.48 423.56 49.08 422.92 49.48C422.24 49.84 421.24 50.04 420.2 50.04C413.24 50.04 410.12 43.56 410.12 37.64C410.12 30.4 414.4 26 419.68 26C423.44 26 426.44 27.68 427.44 32.28L428.8 32.04C428.48 29.04 428.28 26.92 428.16 25.52C426.76 25.24 423.68 24.4 420.4 24.4C412.2 24.4 404.76 29.08 404.76 38.28C404.76 46.24 410.68 51.6 419.8 51.6C423 51.6 426.44 50.72 428.88 50.12C428.64 49.08 428.6 47.8 428.6 46.36V43.08C428.6 40.56 428.84 40.36 430.96 40V38.72Z" fill="#0068AC"/>
<path d="M457.906 50.16C456.986 49.88 456.226 49.4 455.306 48.36C454.426 47.48 453.586 46.28 452.146 44.08C450.946 42.28 449.426 39.6 448.786 38.36C451.546 37.2 453.826 35.24 453.826 31.76C453.826 29.28 452.746 27.52 451.146 26.44C449.546 25.4 447.546 25 444.266 25H433.506V26.32C436.506 26.56 436.866 26.88 436.866 30.16V45.8C436.866 49.12 436.426 49.44 433.346 49.72V51H444.866V49.72C441.786 49.44 441.426 49.08 441.426 45.8V39.76H442.346C443.906 39.76 444.626 40.24 445.266 41.44C446.426 43.48 447.666 45.76 448.826 47.52C450.506 50.08 452.106 51.12 456.426 51.32C456.866 51.32 457.346 51.36 457.666 51.36L457.906 50.16ZM441.426 38.28V28.48C441.426 27.56 441.506 27.12 441.786 26.88C442.066 26.68 442.666 26.48 443.706 26.48C446.266 26.48 448.826 28.08 448.826 32.36C448.826 34.44 448.226 36.04 446.826 37.2C445.906 37.96 444.586 38.28 442.746 38.28H441.426Z" fill="#0068AC"/>
<path d="M470.765 51V49.72C467.685 49.44 467.365 49.16 467.365 45.8V30.24C467.365 26.84 467.685 26.56 470.765 26.32V25H459.285V26.32C462.365 26.56 462.725 26.84 462.725 30.24V45.8C462.725 49.2 462.365 49.44 459.285 49.72V51H470.765Z" fill="#0068AC"/>
<path d="M501.216 25H491.576V26.28C494.456 26.44 495.296 27.08 495.536 28.8C495.616 29.96 495.816 31.84 495.816 35.44V43.44H495.696L479.896 25H473.016V26.28C474.816 26.44 475.656 26.76 476.456 27.76C477.216 28.68 477.256 29.24 477.256 31.96V40.48C477.256 44.04 477.056 45.84 476.936 47.16C476.736 48.96 475.776 49.56 473.536 49.72V51H483.216V49.72C480.336 49.56 479.576 48.92 479.376 47.04C479.256 45.84 479.096 44.04 479.096 40.48V31.08H479.176L495.976 51.4H497.656V35.44C497.656 31.84 497.816 29.96 497.976 28.76C498.176 26.96 499.056 26.4 501.216 26.28V25Z" fill="#0068AC"/>
<path d="M529.593 38.72H518.273V40C522.353 40.36 522.593 40.64 522.593 43.44V47.12C522.593 48.48 522.193 49.08 521.553 49.48C520.873 49.84 519.873 50.04 518.833 50.04C511.873 50.04 508.753 43.56 508.753 37.64C508.753 30.4 513.033 26 518.313 26C522.073 26 525.073 27.68 526.073 32.28L527.433 32.04C527.113 29.04 526.913 26.92 526.793 25.52C525.393 25.24 522.313 24.4 519.033 24.4C510.833 24.4 503.393 29.08 503.393 38.28C503.393 46.24 509.313 51.6 518.433 51.6C521.633 51.6 525.073 50.72 527.513 50.12C527.273 49.08 527.233 47.8 527.233 46.36V43.08C527.233 40.56 527.473 40.36 529.593 40V38.72Z" fill="#0068AC"/>
<path d="M546.059 24.4C537.219 24.4 532.259 31.16 532.259 38.12C532.259 45.8 537.859 51.6 545.579 51.6C553.059 51.6 559.219 46.32 559.219 37.72C559.219 29.76 553.179 24.4 546.059 24.4ZM545.299 26C550.179 26 553.819 30.68 553.819 38.8C553.819 46.28 550.419 50 546.379 50C541.059 50 537.659 44.32 537.659 37.24C537.659 30.12 541.139 26 545.299 26Z" fill="#0068AC"/>
<path d="M584.624 31.52C584.424 29.04 584.224 25.72 584.224 24H583.304C582.624 24.76 582.144 25 581.104 25H565.104C563.984 25 563.464 24.92 562.864 24H561.944C561.864 26.08 561.624 28.92 561.464 31.64H562.824C563.304 29.72 563.744 28.44 564.344 27.76C564.904 27 565.664 26.64 568.944 26.64H570.744V45.8C570.744 49.12 570.344 49.44 566.904 49.72V51H579.384V49.72C575.744 49.44 575.384 49.12 575.384 45.8V26.64H577.544C580.144 26.64 581.024 26.88 581.744 27.68C582.344 28.36 582.824 29.6 583.304 31.6L584.624 31.52Z" fill="#0068AC"/>
<path d="M610.834 31.52C610.634 29.04 610.434 25.72 610.434 24H609.514C608.834 24.76 608.354 25 607.314 25H591.314C590.194 25 589.674 24.92 589.074 24H588.154C588.074 26.08 587.834 28.92 587.674 31.64H589.034C589.514 29.72 589.954 28.44 590.554 27.76C591.114 27 591.874 26.64 595.154 26.64H596.954V45.8C596.954 49.12 596.554 49.44 593.114 49.72V51H605.594V49.72C601.954 49.44 601.594 49.12 601.594 45.8V26.64H603.754C606.354 26.64 607.234 26.88 607.954 27.68C608.554 28.36 609.034 29.6 609.514 31.6L610.834 31.52Z" fill="#0068AC"/>
<path d="M629.379 31.08C629.059 28.56 628.819 26.88 628.659 25.4C627.619 25.08 625.579 24.4 623.259 24.4C617.779 24.4 614.459 27.8 614.459 31.96C614.459 36.04 617.739 38.16 621.299 40C624.299 41.56 626.219 43.04 626.219 45.6C626.219 48.28 624.579 50.04 621.899 50.04C617.979 50.04 615.819 45.72 615.099 43.2L613.739 43.6C614.019 45.84 614.539 49.2 614.899 50.16C615.379 50.4 616.099 50.68 617.179 51C618.259 51.36 619.619 51.6 621.139 51.6C626.819 51.6 630.579 48.12 630.579 43.68C630.579 39.52 627.379 37.44 623.579 35.52C620.179 33.84 618.539 32.52 618.539 30.04C618.539 27.8 620.099 25.96 622.619 25.96C625.939 25.96 627.299 28.84 628.099 31.36L629.379 31.08Z" fill="#0068AC"/>
<defs>
<linearGradient id="paint0_linear" x1="31.0926" y1="4.68652" x2="31.0926" y2="68.6865" gradientUnits="userSpaceOnUse">
<stop stop-color="#FEE9D1"/>
<stop offset="1" stop-color="#F48024"/>
</linearGradient>
</defs>
</svg>
