<svg xmlns="http://www.w3.org/2000/svg" width="16" height="16" viewBox="0 0 16 16" fill="#777"><path d="M11.787 5.657a.41.41 0 0 1-.292-.703l1.626-1.625-1.626-1.626a.412.412 0 0 1 .583-.582l1.917 1.916a.412.412 0 0 1 0 .583l-1.917 1.917a.41.41 0 0 1-.291.12z"/><path d="M2.317 7.973a.412.412 0 0 1-.412-.412V5.08c0-1.193.97-2.163 2.164-2.163h9.635a.412.412 0 0 1 0 .824H4.069c-.74 0-1.34.6-1.34 1.34V7.56a.412.412 0 0 1-.412.412zM11.952 13.083H2.296a.412.412 0 0 1 0-.824h9.656c.739 0 1.34-.601 1.34-1.34V8.39a.412.412 0 0 1 .823 0v2.53c0 1.193-.97 2.164-2.163 2.164z"/><path d="M4.212 15a.41.41 0 0 1-.29-.12l-1.918-1.917a.412.412 0 0 1 0-.582l1.917-1.917a.412.412 0 1 1 .583.583l-1.626 1.625 1.626 1.626a.412.412 0 0 1-.292.703z"/></svg>